<svg width="22" height="14" viewBox="0 0 22 14" fill="none" xmlns="http://www.w3.org/2000/svg">
<path d="M11 0.125C6.41663 0.125 2.50246 2.97583 0.916626 7C2.50246 11.0242 6.41663 13.875 11 13.875C15.5833 13.875 19.4975 11.0242 21.0833 7C19.4975 2.97583 15.5833 0.125 11 0.125ZM11 11.5833C8.46996 11.5833 6.41663 9.53 6.41663 7C6.41663 4.47 8.46996 2.41667 11 2.41667C13.53 2.41667 15.5833 4.47 15.5833 7C15.5833 9.53 13.53 11.5833 11 11.5833ZM11 4.25C9.47829 4.25 8.24996 5.47833 8.24996 7C8.24996 8.52167 9.47829 9.75 11 9.75C12.5216 9.75 13.75 8.52167 13.75 7C13.75 5.47833 12.5216 4.25 11 4.25Z" fill="#636366"/>
</svg>
